<svg width="60" height="60" viewBox="0 0 60 60" fill="none" xmlns="http://www.w3.org/2000/svg">
<g id="material-symbols:account-circle">
<path id="Vector" d="M14.625 42.75C16.75 41.125 19.125 39.8433 21.75 38.905C24.375 37.9667 27.125 37.4983 30 37.5C32.875 37.5 35.625 37.9692 38.25 38.9075C40.875 39.8458 43.25 41.1267 45.375 42.75C46.8333 41.0417 47.9692 39.1042 48.7825 36.9375C49.5958 34.7708 50.0016 32.4583 50 30C50 24.4583 48.0525 19.7392 44.1575 15.8425C40.2625 11.9458 35.5433 9.99833 30 10C24.4583 10 19.7392 11.9475 15.8425 15.8425C11.9458 19.7375 9.99833 24.4567 10 30C10 32.4583 10.4067 34.7708 11.22 36.9375C12.0333 39.1042 13.1683 41.0417 14.625 42.75ZM30 32.5C27.5417 32.5 25.4683 31.6567 23.78 29.97C22.0917 28.2833 21.2483 26.21 21.25 23.75C21.25 21.2917 22.0933 19.2183 23.78 17.53C25.4667 15.8417 27.54 14.9983 30 15C32.4583 15 34.5317 15.8433 36.22 17.53C37.9083 19.2167 38.7517 21.29 38.75 23.75C38.75 26.2083 37.9067 28.2817 36.22 29.97C34.5333 31.6583 32.46 32.5017 30 32.5ZM30 55C26.5417 55 23.2917 54.3433 20.25 53.03C17.2083 51.7166 14.5625 49.9358 12.3125 47.6875C10.0625 45.4375 8.28167 42.7917 6.97 39.75C5.65833 36.7083 5.00167 33.4583 5 30C5 26.5417 5.65667 23.2917 6.97 20.25C8.28333 17.2083 10.0642 14.5625 12.3125 12.3125C14.5625 10.0625 17.2083 8.28167 20.25 6.97C23.2917 5.65833 26.5417 5.00167 30 5C33.4583 5 36.7083 5.65667 39.75 6.97C42.7917 8.28333 45.4375 10.0642 47.6875 12.3125C49.9375 14.5625 51.7191 17.2083 53.0325 20.25C54.3458 23.2917 55.0016 26.5417 55 30C55 33.4583 54.3433 36.7083 53.03 39.75C51.7166 42.7917 49.9358 45.4375 47.6875 47.6875C45.4375 49.9375 42.7917 51.7191 39.75 53.0325C36.7083 54.3458 33.4583 55.0016 30 55Z" fill="#D04B12"/>
</g>
</svg>
